<svg width="16" height="17" viewBox="0 0 16 17" fill="none" xmlns="http://www.w3.org/2000/svg">
<path d="M5.99998 12.6845C2.66665 13.6845 2.66665 11.0179 1.33331 10.6845M10.6666 14.6845V12.1045C10.6917 11.7866 10.6487 11.4671 10.5407 11.167C10.4326 10.867 10.2619 10.5935 10.04 10.3645C12.1333 10.1312 14.3333 9.33785 14.3333 5.69785C14.3331 4.76707 13.9751 3.87198 13.3333 3.19785C13.6372 2.38352 13.6157 1.48342 13.2733 0.684519C13.2733 0.684519 12.4866 0.451185 10.6666 1.67119C9.13865 1.25707 7.52797 1.25707 5.99998 1.67119C4.17998 0.451185 3.39331 0.684519 3.39331 0.684519C3.0509 1.48342 3.02941 2.38352 3.33331 3.19785C2.68673 3.87699 2.32833 4.78016 2.33331 5.71785C2.33331 9.33119 4.53331 10.1245 6.62665 10.3845C6.40731 10.6112 6.23816 10.8815 6.13019 11.1778C6.02222 11.4741 5.97785 11.7899 5.99998 12.1045V14.6845" stroke="#FBFAFF" stroke-width="1.33333" stroke-linecap="round" stroke-linejoin="round"/>
</svg>
